<?xml version="1.0" encoding="UTF-8"?>
<svg version="1.1" viewBox="0 0 2048 2029" width="658" height="652" xmlns="http://www.w3.org/2000/svg">
<path transform="translate(1032,238)" d="m0 0 14 1 10 2 44 5 4 1 1 3 8 1v-4l-6-1-1-3 6 1 2 1v2l13 2 17 4 25 5 36 10 33 12 26 11 16 8 7 4 8 3 19 10 15 9 12 7 12 6 18 10 40 27 18 13 14 10 14 11 20 14 12 8 12 9 14 12 10 8 13 15 11 13 6 8 20 20 9 11 13 18 4 6 3 6-1 2-2-5-4 1-2-1v-2l-7-2-11-9-6-5 4 5 13 12 11 12 8 11 9 11 7 8 4 4 1 10 3 5 4 11 5 11 10 14 6 11 9 15 4 6 6 12 3 5 8 15 3 5 8 17 12 34 8 27 6 34 9 57 5 38 1 18v46l-3-1-1-14-3-20-3-36-3-12-13-78-3-16-4-22-13-38-3-9-4-10-3-8-2-1-3-7 3 12 3 6 2 11 2 7 3 8 5 21 9 38 9 44 6 42 6 60 1 35-2 49-1 13-3 21-4 31-7 32-3 6h-2l2-17 4-25 5-1-4-4 2-14 2-39v-30l-3-60-6-49-3-17-2-12-2-1-1-9-1-1-2-15-3-12-2-11h-1l-3-13-1-6-1 8 5 25 3 16 3 17 1 12 1 1 2 19 1 21v64l-3 50-3 27-6 35-6 28-13 55-11 34-10 39-7 20-7 17-2 1v-8l3-11 2-10 3-10 7-18 1-5-9 17-12 20-11 18-12 19-22 36-8 12-10 13-10 9-7 8-13 15-9 10-1-3-3-1-4 2 6-8 8-8 8-10 11-12 12-14 11-17 15-24 17-29 9-16 9-17 15-35 13-34 10-31 6-26 3-18 1-2h-2l3-23 3-21 1-19 1-50v-39l-1-33h-2l-1-9v-10l3-4-4-2-1-8-1-3h2l-2-15-1-2-1 5h-1l-2-27-1-3-2-10-4-18h-2l-2-15-1 6-2-4-3-19-1-1v7l-2-2-1-16-3-3-4-12-2-4v-6h-2l-6-18-3-8-2-8h-2l-2-8-4-7-4-10-11-20-8-16-3-4-7-15-2-1-3-9-5-5-2-4v2l3 9 3 5 5 12 13 25 12 22 4 10 2 2 1 5 5 11 5 13 6 16 3 9 4 11 3 9v16l1 6 2-3 3 16 1 2 2-1 3 19 3 12 1 18 1 7v8h2l2 8v14 3l1 3 2-2 1 12v65l-1 4-2 43-2 19-4-4 3 6-2 14-5 27-6 21v8l-1 5h-2l-3 13v9l-7 25-8 24-11 24-8 18-7 14-8 17-15 25-10 15-7 10-13 20-9 12-14 17-13 15-7 9-18 20-39 39-3 2-4-1-1 1-9 10-11 10-13 10-11 9-15 13-7 5-2-1-1 3h-2v-2l-5 3-11 7-16 10-25 14-19 11-21 11-24 9-35 11-27 7-15 4h-4l-1-2h-2l-1 2-9 2-29 7-19 2h-10l-22 3-11 1h-28l-7 1h-34l-27-3-3-1-44-5h-13l-22-5-29-8-16-4-16-6-9-3-5-3v-2h-11l-10-4-14-4 5-5 12-7 4-3 42-21 28-13 7-1 2-2 5-2 28-13 40-19 46-20v-2l11-3 3-2 4-2 6-2 22-10 28-13 8-4 3-1h2l1-2 10-4 34-17 23-11 18-8 6-3h2l1-2 5-2 3-1 14-7h2v-2l5-2 4-2 8-3 12-7 19-10 28-15 21-13 20-14 15-11 16-13 12-11 11-12 10-13 6-11 3-8 4-15v-18l-6-21-4-4-1-5-10-10-22-18-7-5-9-4-13-5-19-8-2-1v-2l-8-1-11-4-12-4v-2l-3 1-9-4-13-3-9-3-4-1-16-5-11-3v-2h-7l-16-5-10-2-24-7-35-10-26-9-21-9-11-7-8-9-3-8 3-9 6-8 10-8 15-8 31-14 26-10 16-5 10-2 16-5 18-6 19-5 40-13 50-15 29-9 52-18 24-9 33-13 23-10 13-7 22-12 11-7 16-12 10-8 9-9 11-15 5-9 4-7 1-5-4 2-7 11-9 13-11 12-10 9-17 11-12 7-33 15-4-1v2l-85 29-32 9-100 25-63 15-34 8-64 16-42 12-25 7-33 11-20 8-21 11-12 9-6 7-4 9-1 4v8l4 11 9 10 13 9 20 11 28 11 35 12 48 14 41 12 41 14 19 8 17 9 15 10 9 8 7 10 4 8 1 3v11l-6 11-11 12-11 10-10 7-18 10-19 9-35 15-28 11-52 18-38 13-30 9-37 11-25 8-53 15-26 7-52 13-54 14-52 13-31 6-23 3h-21l-14-3-32-8-20-7-25-12-18-11-16-12-14-12-16-16-9-11-10-13-12-17-9-14-7-11-6-11-10-19-11-25-11-30-5-15-8-26-7-30-6-28-2-10v-12l-2-8-1-16-2-14-2-31v-44l2-1 1-5 2-35 1-11 2-3 1 1 1-4h-3l1-11 6-22 4-17 4-23 10-35 9-26 4-10 5-13 4-14 9-19h2l1-4 4-10 4-7 12-23 9-18h2l2-6 11-18 5-6 12-17 9-11 8-11 11-15 9-10 7-6 8-11 7-7 2-3h2l1-3 10-8h2l1-3 8-7 10-10 8-7 10-10 13-10 14-11 10-8 10-6 11-8 28-18 15-8 8-4 3-3 10-7 14-8 18-8 14-7 24-10 14-5 10-4 11-4 11-2 27-9 18-4 3-3 18-2 13-3 8-3 15-2 17-2h12l1-5 37-1h31v-3h19l17 2 27 2 22 3 2 1h9l3-3-12-2-28-5-16-3-16-1h-73l-5-1 2-3 7 1 1-2 3 1 11-2h13l7 1v-2l7-1h22l15 2 7 2 16 3 21 2 5 1-1 2h8l4 2 7 3 25 5-4-2 9 1 4 2-1 2 12 1-10-2v-1l11 1 39 9 3 2 11 2v2l8 1 29 9 30 11 17 8 4 2-14-8-15-7-27-11-31-11-42-12-20-5-18-5-29-6-25-4-33-4-12-2-16-1h-19l-51 2-38 2-29 4-38 8-26 7-9 2-35 9-17 6-20 8-20 7-22 9h-3v2l-7 3-5 3-38 19-19 11-23 12-18 11-10 8-14 11-13 11-2-1 3-4 2-6-2-1 14-12 17-13 18-13 7-4h2l-1-3 10-9 27-15 19-10 40-17 24-11 8-4 2-2 69-23 32-9 18-5 9-1 11-1 28-5 17-3 2-4-3 1-32 2-41 4h-6l-2-2 3-2-4-2 50-8 29-3 51-4h26v2h3v-3h34l18 1z" fill="currentColor"/>
<path transform="translate(1010,173)" d="m0 0h1l1 6h42l28 3 38 7 37 10 22 6 51 17 45 18 41 19 6 3-2 1-27-12-37-15-34-12-12-3-3 1-32-8-32-6-66-9-29-3-17-1h-45l-46 2-38 3-43 7-42 9-43 11-55 16-44 15-33 13-28 12-23 11-20 12-38 24-30 20-23 16-16 12-15 13-20 18-13 12-7 7-8 7-13 13-7 8-24 28-13 18-2 4 5-5v4l-8 10-3 1-2 4v1l9-9 8-10 12-14 11-14 9-10 15-16 14-14 8-7 8-8 8-7 15-13 14-12 12-10 22-15 15-10 22-14 19-12 20-12 26-14 23-11 27-11 29-11 36-12 36-11 56-13 38-7 55-8 18-2 15-1h61l27 1 13 1 4 2 75 12 29 6 54 13 42 12 25 9 24 10 25 11 7 3 17 9 9 6v2l-5-2-21-12-26-10-36-15-22-8-34-9-12-3h-7l-33-8 1 3 30 8 23 7 37 14 25 11 20 9 16 8 18 10 13 8 24 13 20 12 20 13 11 7 15 10 21 16 13 11 19 14 9 5 4 3 6 3 10 7 7 5 8 3 9 7 7 5v2l5 2 11 10 8 7 29 29 11 14 5 6v2l3 1 5 8 8 12v2h2l5 8 10 15 7 10 3 5 3 4 3 5 4 7v2h2l3 7 3 1 2 7 2-2 4 14 3 3 1 6 4 4 2 8 2-1 2 3 1 5h3l-1 3 4 10 2-1 1 5 2 8 3 1 4 16 2 1 1 3 3 1 1 10 6 18 2-1 2 5h-2l7 17 6 16 4 9 3 10 4 11 6 22 2 5 5 28 4 18 2 5v7l3 9 2 2-1 5h-3l3 13 2 2 4 54 3 23v56l-2 24-5 46-4 27-8 38-8 30-12 36-14 39-13 30-15 31-11 23-14 26-13 21-11 17-12 19-11 16-22 33-8 10-12 13-17 17-1 3 7 1 10-9 8-8 9-11 10-13 16-24 15-22 14-20 11-16 10-15 15-24 10-17 15-27 12-26 10-25 10-30 5-11 3-3h2l-2 10-12 34-8 21-12 29-13 25-14 23-8 13-12 22-38 57-12 17-11 15-13 17-10 13-11 12-52 52-11 9-11 10-17 13-16 13-13 10-18 13-20 13-21 13-16 10-17 11-27 14-30 13-28 11-30 11-14 5 10-2 26-9 3 1-21 8-8 3v2l-4 2 43-15 28-11 17-7 14-7 17-8 18-10 15-9 44-28 12-8 10-8 12-9 13-11 12-9 14-11 14-12 13-13 8-7 40-40 9-11 9-10 9-12 14-18 8-11 12-17 10-14 10-16 12-18 12-19 30-56 13-23 13-25 6-14 7-19 6-16 11-35 7-23 11-48 6-36 6-54 2-26 1-57v-18l-2-11-2-22-4-22-2-13-3-17-4-26-5-31-2-5-2-16v-16l-1 10-2-1-3-24-2 4-3-18v-4l-3 3-1-2-1-15h-2l-1 2-2-10-1-6h-3l-2-9v-3h-3l-3-14-3-3-1-10h-3l-2-10h-3l-3-8 1-2-4-1-3-9-2-1-2-9-1-3h-2l-2-6-2-4-2-3v-4h-2v-4h-2l-7-14-6-11-5-9-5-7-3-5-9-14-4-5-3-6-8-12-12-17-14-18-11-14-14-20-6-9 4 2 1 3 4 2 11 13 9 11 7 7 8 11 8 10 10 13 10 14 2 4 3 3 4 8 6 9 2 5 3 3 3 5v2h2l3 6 4 7v2h3l2 4v3h2l2 2 2 6 4 4 1 7h3l2 9 1 2 3 2-1 2 2 1-1 3 2 1v1l3 2 2 9 2-1 2 5v6l4 2 2 9h3l2 8v5l3-3 3 15 3-1v3h-2l3 8v3l3-3 1 1 2 12 2-1 3 16 3-1 1 17 2-5 2 2 1 3 1 14 3-3 2 11 1 11 1-6h1l2 10v5l2 4 2 7h1l3 11 3 29 1 6h3l1 9 1 15 4-1-2 6v2l1 4 4 9-1 10 2 17 2 31 2 9 1 2v9h-2l3 17v56l-2 33-1 4v15l-2 6-3 30-1 11-7 38-2 1-3 12-3 19-4 11-5 18-4 13-3 10-4 10-8 22-5 13-5 12-5 10-5 12-9 20-4 10-2 6h-2l-1 5-12 22-3 3-7 12-7 11-8 14h-2l-1 4-6 7-11 17-9 11-8 11-6 8-8 11-7 8-1 4-3 1-7 9-4 6-12 12-7 8-5 6-1 3h-3l-2 4-4 5-5 4-5 5-6 7-4 1-2 4-10 8-7 10h-2v2l-6 3-1 3-6 4-4 4-13 10-11 8-4 4-8 5v2l-6 4-5 4-10 5 1 2-10 5h-2l-1 3-17 11-13 8-4 2 1 2-8 4-4 4-14 6 1 2-13 4-16 8-5 2 1 2-8 2-15 8-10 4-8 4-12 5-11 5-20 7-41 14-6 4-12 2-26 8-25 6-25 4-1 3-6-1-35 6-12 2-27 3-35 2-26 1h-14l-14-1-39-1-20-1-57-8-52-9 2-1v-2l-4 2-12-1-28-5-38-11-26-9-36-12v-2l-10-2v-2l-11-5-10-4-15-7-7-2v-2l-6-2-29-15-26-15-9-3-1-3-6-2-6-4-5-5-8-6-5-1-7-5-1-3h-3l-10-8-10-6-3-3-12-5 2-3 7-1 1-2 5-2h4v-2l25-12 22-12 10-5 15-6 40-18 24-12 36-16 17-8 3-3 4 1 16-8 25-11 35-15 29-13 37-16 47-20 30-13 33-16 22-10 32-13 59-27 36-16 36-17 33-15 35-17 16-9 10-5 23-13 19-10 21-13 23-16 12-9 14-12 10-10 11-14 8-16 3-10v-16l-3-14-6-10v3l-1 2-6-8 3 9 3 12v20l-4 13-7 13-8 10-12 11-17 13-14 10-17 10-26 14-24 12-21 9-24 11-49 21-23 9-25 9-38 15-37 14-26 10-21 7-29 11-96 36-23 9-29 11-39 14-33 13-30 12-28 11-25 9-18 7-32 12-28 11-27 11-43 16-22 8-9 4-15 6-13 5-2 3-5 1-5-5v-2h-2l-5-6-8-7-15-14-33-33-11-14-9-10-10-13-9-12-6-7-12-16-11-14-9-12-28-42-9-15-7-11-7-16-9-17-8-19-7-16-6-14-5-13-12-31-5-15v-4l2-1-6-14-9-29-5-25-5-29-5-28-2-11-2-7 1-7-2-7-3-54-1-10-1-23v-43l2-1 3-45 2-17 4-31 12-59 15-56 9-29 11-29 12-28 14-27 8-16 9-16 17-28 11-18 11-16 14-19 12-17 9-12 13-15 7-8 9-10 13-14 7-8 12-13 7-8 17-17 8-7 11-10 11-9 14-12 16-12 13-10 18-14 11-7 19-12 13-8 17-10 5-4 1-2 14-7 4-3 14-7 7-4 7-1 28-13 1-2 8-2 30-13 28-11 34-11 20-5h4v-2l10-2 13-3 21-7 9-2 15-4 25-4h5v-3l6 2 1-2 14-1 14-2 33-2zm22 65-2 2-17-1h-34v3h-3v-2h-26l-63 5-29 4-38 6 4 2-3 3 2 1 14-1 46-4 19-1 3-1-2 4-40 7-11 2h-9l-20 5-27 8-24 7-28 10-27 9-3 3-18 8-11 5-42 18-23 12-22 13-9 8 1 3-6 2-18 13-12 9-16 13-6 5 2 2-3 7-2 3 4-2 13-11 17-13 13-9 14-8 25-13 17-10 34-17 5-3 7-3v-2l5-1 25-10 20-7 15-6 20-7 76-19 29-6 29-4 59-3 30-1h19l16 1 27 4 31 4 27 5 26 6 21 6 27 7 25 8 26 9 34 14 21 11 2 2-16-8-14-6-34-12-20-6h-5l-1-2-13-3v-1l-32-7-7-2-11-1 4 2h-1-5l1-3-8-2h-5l3 2-28-6-3-3-7-1h-5l1-2-13-2-18-2-17-3-7-2-9-1h-22l-7 1v2l-7-1h-13l-13 2-2-1v2l-7-1-2 3 9 1h69l23 2 27 5 20 4h2l-3 3h-9l-9-2-25-3-25-2-9-1h-19v3h-31l-37 1-1 5h-13l-16 2-15 2-12 4-13 3h-9l-7 2-1 2-21 5-27 9-11 2-17 6-12 5-20 8-20 9-28 14-9 6-8 5-3 3-10 5-16 9-24 16-10 7-11 7-9 7-11 9-12 9-12 11-7 6-19 19-3 2v2l-5 2-8 7v2l-3 1-7 8-8 10-6 7-13 13-10 14-8 11-8 10-12 17-6 8-7 11-5 9v2l-3 1-7 16-12 22-8 16-2 5-1 2-3 4-8 17-5 18-10 25-10 31-7 27-4 22-10 40v6h3l-1 4-2-1-2 11-1 21-1 17-1 5-2 1v44l2 31 2 14 1 16 2 8v12l11 52 6 23 9 29 8 21 6 16 8 19 8 16 9 15 6 11 18 27 14 19 9 10 7 8 14 14 14 11 12 9 22 13 21 10 27 9 32 8 7 1h21l23-3 35-7 60-15 30-8 43-11 44-11 42-12 37-11 29-9 43-13 41-14 34-12 20-7 34-14 34-15 19-10 11-7 13-11 10-10 7-11 2-4v-11l-4-9-6-9-7-8-14-10-22-12-14-6-25-9-34-11-55-16-30-9-37-13-23-10-19-11-10-8-7-8-4-11v-8l4-11 6-8 10-8 14-8 17-8 18-7 38-12 43-12 33-9 36-9 21-5 39-9 63-15 71-18 34-9 46-15 31-11 18-6 1-1 5-1 35-16 19-12 9-7 10-9 9-10 8-12 7-11 4-2-3 9-7 12-9 12-9 10-9 8-16 12-18 11-14 8-11 6-17 8-32 13-35 13-37 13-36 12-53 16-35 11-26 8-17 5-24 8-11 2-24 8-24 10-30 14-11 7-9 8-5 9-1 5 3 8 8 9 13 8 27 11 28 9 28 8 29 8 10 3 8 2h7v2l21 6 8 2 5 2 14 4 5 1 9 4 3-1v2l13 4 10 4 8 1 1 2 15 7 14 6 8 3 8 4 14 11 10 9 8 7 5 6 1 5 4 4 5 19v18l-4 15-3 8-7 12-7 9-12 14-9 9-11 9-14 11-17 12-21 14-19 11-24 13-17 9-12 7-9 3-3 2-5 2v2l-5 2-12 5-2 1-6 2v2l-7 2-14 7-13 6-25 12-30 15-5 1v2h-5l-4 3-29 14-12 5-17 8-6 1v2l-14 4v2l-34 15-20 9-34 16-26 12-5 2-4 3-7 1-38 18-34 17-3 3-13 8-1 2 14 4 10 4h11l2 4 5 2 7 2 16 6 16 4 29 8 22 5h13l44 5 3 1 27 3h34l12-1h23l25-3 10-1h10l21-3 28-7 6-1 1-2h2l1 2 9-1 28-8 19-5 36-12 19-8 21-11 15-9 18-10 20-12 9-6 5-4 3-1v2l3-1v-2l3 1 10-9 11-9 13-11 13-10 13-12 5-6 1-1 4 1 10-9 39-39 7-8 10-12 9-11 12-14 8-10 12-17 11-17 7-10 11-17 13-22 8-17 1-3 8-16 14-30 9-26 7-24 2-18 3-13h2v-8l7-26 6-33-1-5-1-4 3 1 1-3 2-32 1-24 1-4v-65l-1 14h-1l-1-24-2-5 1-1v-14l-1-8h-2l-2-15-1-18-4-17-2-13-1 6h-1l-3-17-1-4-2 1-1-7v-16l-4-11-6-18-6-16-8-20-3-6-1-4-12-24-12-22-8-16-5-12-3-6-2-7h3l3 6 5 6 1 7 3 1 8 17 5 8 14 27 5 9 3 7 3 6v6h2l4 10 1 5 2 2 4 14v3h2l2 9 4 9 2 6 2-2v9l1 10v-10l2 4 2 6 2 15 1-5 2 3 1 15h2l3 9 4 16v5l1 4 2 19 1-9h1l2 26h-2l2 3 1 8 4 2-2 5h-1v18h2l1 6 1 27v39l-1 50-1 19-3 21-2 13-2 10h2l-5 30-7 26-12 35-9 22-15 35-12 23-13 22-12 20-12 19-9 14-11 13-7 8-10 11-8 10-11 12 4-2 3 3 5-4 9-11 13-14 7-8 6-5 13-18 13-22 7-11 15-24 11-18 9-15 11-19 5-9 1 2-9 24-3 10-2 12-3 9v7l11-28 6-20 9-35 10-31 15-64 7-37 4-29 3-40 1-21v-64l-2-32-1-8-2-7-1-11-4-24-5-23-1-10 1-5 2 1 2 12 2 6h1l4 20 2 8 1 11 1 3v7l3 1 6 39 5 39 3 60v30l-2 39-2 14 3 2v2l-5 1-2 19-4 23 3-3 6-26 3-15 5-42 1-4 2-32 1-36-1-29-6-60-6-42-10-49-11-45-4-16-2-2-1-9-4-13-3-8-1-8 3 4 1 6 3 1 5 12 2 6 14 41 4 15 4 24 7 41 8 48 2 6 4 45 3 20v5l2 1-1-46-2-28-6-40-9-58-5-25-9-29-10-28-9-20-4-5-6-12-3-5-4-8-15-25-6-11-8-11-4-7-4-9-3-9-3-5-1-10-7-8-7-7-6-8-10-13-11-12-16-15h3l11 9 5 4 7 3v2h6l2 3-3-6-7-10-11-15-12-14-19-19-8-11-10-11-9-11-17-14-12-10-12-8-16-11-18-13-15-12-12-8-18-13-38-25-32-17-22-13-19-10-10-4-19-10-21-9-35-13-35-10-22-5-16-3-21-5v-2l-8-2 3 3 4 1v4h-8l-1-4-21-2-33-4-15-2-3-1-1 3-18-1-34-1v3h-3v-2l-26 1-63 5-43 6-16 1-2-2 8-4 17-4 31-5 35-4 3-1 36-3 23-1z" fill="currentColor" opacity="0.6"/>
</svg>

